<svg width="18" height="19" viewBox="0 0 18 19" fill="none" xmlns="http://www.w3.org/2000/svg">
<path d="M5.8 3H12.2M5.8 3C4.11984 3 3.27976 3 2.63803 3.32698C2.07354 3.6146 1.6146 4.07354 1.32698 4.63803C1 5.27976 1 6.11984 1 7.8V13.2C1 14.8802 1 15.7202 1.32698 16.362C1.6146 16.9265 2.07354 17.3854 2.63803 17.673C3.27976 18 4.11984 18 5.8 18H9.01178C10.0593 18 11.1076 17.9869 12.1566 17.971C13.8493 17.9455 14.6957 17.9328 15.3249 17.6057C15.8841 17.3151 16.326 16.8701 16.6127 16.309C16.9355 15.6775 16.9423 14.8372 16.9561 13.1564L17 7.8C17 6.11984 17 5.27976 16.673 4.63803C16.3854 4.07354 15.9265 3.6146 15.362 3.32698C14.7202 3 13.8802 3 12.2 3M5.8 3V1M5.8 3V5M12.2 3V1M12.2 3V5" stroke="white" stroke-width="2" stroke-linecap="round"/>
</svg>
