<svg width="24" height="24" viewBox="0 0 24 24" fill="none" xmlns="http://www.w3.org/2000/svg">
<path d="M8 7H16M8 11H13M13 21.5V19.8C13 18.1198 13 17.2798 13.327 16.638C13.6146 16.0735 14.0735 15.6146 14.638 15.327C15.2798 15 16.1198 15 17.8 15H19.5M20 14.0118V6.8C20 5.11984 20 4.27976 19.673 3.63803C19.3854 3.07354 18.9265 2.6146 18.362 2.32698C17.7202 2 16.8802 2 15.2 2H8.8C7.11984 2 6.27976 2 5.63803 2.32698C5.07354 2.6146 4.6146 3.07354 4.32698 3.63803C4 4.27976 4 5.11984 4 6.8V17.2C4 18.8802 4 19.7202 4.32698 20.362C4.6146 20.9265 5.07354 21.3854 5.63803 21.673C6.27976 22 7.11984 22 8.8 22H12.0118C12.7455 22 13.1124 22 13.4577 21.9171C13.7638 21.8436 14.0564 21.7224 14.3249 21.5579C14.6276 21.3724 14.887 21.113 15.4059 20.5941L18.5941 17.4059C19.113 16.887 19.3724 16.6276 19.5579 16.3249C19.7224 16.0564 19.8436 15.7638 19.9171 15.4577C20 15.1124 20 14.7455 20 14.0118Z" stroke="white" stroke-width="2" stroke-linecap="round"/>
</svg>
