<svg width="56" height="32" viewBox="0 0 56 32" fill="none" xmlns="http://www.w3.org/2000/svg">
<path d="M26.769 10.1453H32.164L24.298 31.2814H20.8798L15.979 18.6843L11.2842 31.2814H7.90716L0 10.1453H5.14789L9.84276 22.1506L14.2905 10.1453H17.6675L22.3624 22.1506L26.769 10.1453Z" fill="white"/>
<path d="M44.757 26.9696C48.1752 26.9696 51.1404 24.2642 51.1404 20.6288C51.1404 17.1625 48.4223 14.4148 45.0041 14.4148C41.2976 14.4148 38.6207 17.1625 38.6207 20.6288C38.6207 24.2642 41.5447 26.9696 44.757 26.9696ZM33.7199 20.6288V0H38.6207V11.3712C40.5563 10.1453 42.5331 9.34214 45.0041 9.34214C51.1404 9.34214 56 14.4148 56 20.6288C56 26.9696 50.8933 32 44.757 32C38.8266 32 33.7199 26.9696 33.7199 20.6288Z" fill="white"/>
</svg>
